<?xml version="1.0" encoding="iso-8859-1"?>
<!-- Generator: Adobe Illustrator 16.0.0, SVG Export Plug-In . SVG Version: 6.00 Build 0)  -->
<!DOCTYPE svg PUBLIC "-//W3C//DTD SVG 1.1//EN" "http://www.w3.org/Graphics/SVG/1.1/DTD/svg11.dtd">
<svg version="1.1" id="Calque_1" xmlns="http://www.w3.org/2000/svg" xmlns:xlink="http://www.w3.org/1999/xlink" x="0px" y="0px"
	 width="74.988px" height="77.303px" viewBox="0 0 74.988 77.303" style="enable-background:new 0 0 74.988 77.303;"
	 xml:space="preserve">
<polygon style="fill:#4D4D4F;" points="24.386,77.303 24.386,67.589 57.625,29.352 27.075,29.352 27.075,17.508 74.988,17.508 
	74.988,27.111 41.64,65.459 63.368,65.459 63.368,51.117 74.876,51.117 74.876,77.303 "/>
<path style="fill:#29BDC5;" d="M28.457,11.427c-0.523-2.09-1.383-3.658-2.577-4.705c-1.271-1.12-2.839-1.681-4.706-1.681
	c-2.315,0-4.071,0.711-5.266,2.129c-1.271,1.494-1.904,3.66-1.904,6.498v10.643h10.42v5.041h-10.42v42.91h10.42v5.041H8.291v-5.041
	H8.179v-42.91H0v-5.041h8.179v-9.522c0-4.406,1.194-7.991,3.585-10.755C14.229,1.344,17.402,0,21.286,0
	c3.585,0,6.386,1.083,8.403,3.248c2.164,2.168,3.473,4.633,3.92,7.395L28.457,11.427z"/>
</svg>
